<?xml version="1.0" standalone="no"?>
<!DOCTYPE svg PUBLIC "-//W3C//DTD SVG 20010904//EN"
 "http://www.w3.org/TR/2001/REC-SVG-20010904/DTD/svg10.dtd">
<svg version="1.0" xmlns="http://www.w3.org/2000/svg"
 width="65.000000pt" height="65.000000pt" viewBox="0 0 65.000000 65.000000"
 preserveAspectRatio="xMidYMid meet">

<g transform="translate(0.000000,65.000000) scale(0.100000,-0.100000)"
fill="#000000" stroke="none">
<path d="M77 503 c-11 -10 -8 -181 3 -188 6 -4 10 27 10 84 l0 91 180 0 180 0
0 -92 c0 -72 3 -89 12 -80 15 15 134 16 143 2 3 -6 -3 -10 -14 -10 -28 0 -28
-35 -1 -52 21 -13 28 -48 10 -48 -5 0 -19 9 -30 20 -25 25 -55 25 -80 0 -20
-20 -20 -20 -20 20 0 22 -4 40 -10 40 -5 0 -10 -18 -10 -40 l0 -40 -95 0 c-82
0 -98 3 -115 20 -25 25 -55 25 -80 0 -21 -21 -70 -28 -70 -10 0 6 11 10 25 10
14 0 25 5 25 10 0 6 -22 10 -50 10 -27 0 -50 -4 -50 -10 0 -5 6 -10 14 -10 7
0 16 -9 19 -20 4 -15 14 -20 36 -20 20 0 34 -7 41 -20 24 -45 91 -46 105 -1 6
19 14 21 110 21 96 0 104 -2 110 -21 10 -30 52 -43 81 -24 13 8 24 20 24 25 0
6 11 15 25 20 23 9 25 15 25 65 0 47 -4 60 -25 80 -20 17 -27 35 -29 70 -3 53
-15 65 -67 65 -28 0 -38 5 -42 20 -5 19 -14 20 -194 20 -104 0 -193 -3 -196
-7z m478 -63 c4 -6 -12 -10 -39 -10 -25 0 -46 5 -46 10 0 6 18 10 39 10 22 0
43 -4 46 -10z m6 -62 c7 -28 7 -28 -42 -28 -48 0 -49 1 -49 31 0 29 1 30 42
27 36 -3 43 -7 49 -30z m49 -98 c0 -5 -4 -10 -10 -10 -5 0 -10 5 -10 10 0 6 5
10 10 10 6 0 10 -4 10 -10z m-380 -65 c26 -32 -13 -81 -47 -59 -23 14 -28 41
-13 59 16 19 44 19 60 0z m330 0 c15 -18 10 -45 -12 -59 -35 -22 -74 27 -48
59 16 19 44 19 60 0z"/>
<path d="M184 199 c-10 -17 13 -36 27 -22 12 12 4 33 -11 33 -5 0 -12 -5 -16
-11z"/>
<path d="M514 199 c-10 -17 13 -36 27 -22 12 12 4 33 -11 33 -5 0 -12 -5 -16
-11z"/>
<path d="M302 377 l-41 -41 -25 23 c-13 12 -26 18 -30 13 -3 -5 8 -22 25 -38
l30 -28 50 51 c28 28 47 53 42 56 -5 3 -28 -13 -51 -36z"/>
<path d="M60 280 c0 -6 28 -10 65 -10 37 0 65 4 65 10 0 6 -28 10 -65 10 -37
0 -65 -4 -65 -10z"/>
<path d="M275 240 c3 -5 37 -10 75 -10 38 0 72 5 75 10 4 6 -23 10 -75 10 -52
0 -79 -4 -75 -10z"/>
</g>
</svg>
