<?xml version="1.0" standalone="no"?>
<!DOCTYPE svg PUBLIC "-//W3C//DTD SVG 20010904//EN"
 "http://www.w3.org/TR/2001/REC-SVG-20010904/DTD/svg10.dtd">
<svg version="1.0" xmlns="http://www.w3.org/2000/svg"
 width="200.000000pt" height="200.000000pt" viewBox="0 0 200.000000 200.000000"
 preserveAspectRatio="xMidYMid meet">

<g transform="translate(0.000000,200.000000) scale(0.100000,-0.100000)"
fill="#000000" stroke="none">
<path d="M623 1700 c-133 -28 -248 -151 -269 -286 l-6 -44 -50 0 c-62 0 -109
-27 -132 -74 -14 -29 -16 -85 -16 -404 0 -367 0 -369 23 -403 34 -51 78 -69
169 -69 67 0 77 -2 83 -19 10 -32 81 -89 125 -101 75 -20 149 9 197 79 l28 40
245 1 245 0 20 -36 c65 -122 256 -118 321 7 l15 29 114 0 115 0 0 234 0 233
-135 169 -135 169 -167 5 -167 5 -7 34 c-4 18 -21 47 -38 64 -26 27 -39 32
-95 35 l-64 4 -7 44 c-9 63 -59 157 -107 199 -79 72 -203 106 -305 85z m141
-121 c21 -6 58 -29 82 -51 85 -78 97 -187 33 -293 -41 -69 -171 -230 -184
-230 -14 1 -144 163 -184 230 -114 189 43 402 253 344z m-380 -366 c39 -79
212 -300 289 -371 l24 -23 68 73 c87 95 209 256 240 319 23 44 29 49 59 49 71
0 66 25 66 -366 l0 -354 -180 0 c-109 0 -180 4 -180 10 0 15 -61 80 -89 94
-43 23 -87 28 -131 16 -44 -12 -115 -69 -125 -101 -6 -16 -16 -19 -81 -19
l-74 0 0 354 c0 384 -3 364 57 365 29 1 35 -4 57 -46z m1213 -196 l73 -92
-155 -3 -155 -3 0 -54 0 -55 185 0 185 0 0 -135 0 -135 -55 0 c-50 0 -56 2
-69 29 -34 64 -123 109 -189 96 -52 -11 -112 -51 -132 -89 -11 -20 -23 -36
-27 -36 -5 0 -8 128 -8 285 l0 285 138 0 137 -1 72 -92z m-955 -494 c40 -36 8
-113 -47 -113 -54 0 -85 71 -48 112 20 22 70 23 95 1z m852 -5 c22 -31 20 -58
-6 -85 -25 -27 -54 -29 -86 -7 -26 18 -30 74 -6 98 24 24 80 20 98 -6z"/>
<path d="M629 1473 c-63 -39 -80 -137 -33 -192 77 -92 225 -41 224 77 -1 26
-6 57 -14 70 -31 57 -121 80 -177 45z m81 -107 c0 -11 -19 -15 -25 -6 -3 5 1
10 9 10 9 0 16 -2 16 -4z"/>
</g>
</svg>
